<?xml version="1.0" encoding="utf-8"?>
<!-- Generator: Adobe Illustrator 16.0.0, SVG Export Plug-In . SVG Version: 6.00 Build 0)  -->
<!DOCTYPE svg PUBLIC "-//W3C//DTD SVG 1.1//EN" "http://www.w3.org/Graphics/SVG/1.1/DTD/svg11.dtd">
<svg version="1.1" id="Layer_1" xmlns="http://www.w3.org/2000/svg" xmlns:xlink="http://www.w3.org/1999/xlink" x="0px" y="0px"
	 width="1632px" height="1632px" viewBox="0.25 116.625 1632 1632" enable-background="new 0.25 116.625 1632 1632"
	 xml:space="preserve">
<path fill="#4CA3FF" d="M1020.301,954.084c-173.587,97.756-380.382,175.318-482.162,210.951c-3.442,1.207-6.423,2.248-9.014,3.139
	l-0.303-1c2.789-1.098,5.806-2.273,8.868-3.48c347.683-136.203,558.026-396.393,645.132-524.79l221.429-362.848h-313.663
	c-0.038,0.012-0.083,0.041-0.123,0.046c-10.755,0.308-42.82,3.749-63.056,39.252c-0.284,0.503-200.292,367.871-200.292,367.871
	S609.684,317.493,608.464,315.354c-24.286-42.612-65.641-39.035-66.704-39.298H228.24
	C362.643,487.54,497.044,697.052,629.47,908.535l-424.944,679.912l108.418,0.746h87.5l72.689-0.234
	c5.069,0,25.203-1.182,27.828-1.934c61.267-8.883,79.976-45.678,81.444-48.184c0.617-1.047,226.926-385.223,226.926-385.223
	s231.93,382.018,233.376,384.484c1.673,2.846,25.646,50.115,109.275,50.115l72.683,0.229h203.309L1020.301,954.084z"/>
</svg>
